<mxfile host="app.diagrams.net" modified="2024-02-09T11:21:08.489Z" agent="Mozilla/5.0 (Windows NT 10.0; Win64; x64) AppleWebKit/537.36 (KHTML, like Gecko) Chrome/121.0.0.0 Safari/537.36" etag="Na_3y7Xcgcs6CvUVt_r0" version="23.1.2" type="device">
  <diagram id="Fzx5WwRsPnoLJgNOwPdi" name="Page-1">
    <mxGraphModel dx="934" dy="715" grid="1" gridSize="10" guides="1" tooltips="1" connect="1" arrows="1" fold="1" page="1" pageScale="1" pageWidth="827" pageHeight="1169" math="0" shadow="0">
      <root>
        <mxCell id="0" />
        <mxCell id="1" parent="0" />
        <mxCell id="-NY3NpNkmHzMiphdb3_H-1" value="" style="image;aspect=fixed;perimeter=ellipsePerimeter;html=1;align=center;shadow=0;dashed=0;spacingTop=3;image=img/lib/active_directory/vista_terminal.svg;" parent="1" vertex="1">
          <mxGeometry x="160" y="60" width="32.5" height="50" as="geometry" />
        </mxCell>
        <mxCell id="-NY3NpNkmHzMiphdb3_H-2" style="edgeStyle=orthogonalEdgeStyle;rounded=0;orthogonalLoop=1;jettySize=auto;html=1;exitX=0;exitY=0.75;exitDx=0;exitDy=0;entryX=1;entryY=0.75;entryDx=0;entryDy=0;" parent="1" source="-NY3NpNkmHzMiphdb3_H-4" target="-NY3NpNkmHzMiphdb3_H-1" edge="1">
          <mxGeometry relative="1" as="geometry" />
        </mxCell>
        <mxCell id="-NY3NpNkmHzMiphdb3_H-3" style="edgeStyle=orthogonalEdgeStyle;rounded=0;orthogonalLoop=1;jettySize=auto;html=1;exitX=1;exitY=0.5;exitDx=0;exitDy=0;entryX=0;entryY=0.5;entryDx=0;entryDy=0;" parent="1" source="-NY3NpNkmHzMiphdb3_H-4" target="-NY3NpNkmHzMiphdb3_H-5" edge="1">
          <mxGeometry relative="1" as="geometry" />
        </mxCell>
        <mxCell id="-NY3NpNkmHzMiphdb3_H-4" value="" style="image;aspect=fixed;perimeter=ellipsePerimeter;html=1;align=center;shadow=0;dashed=0;spacingTop=3;image=img/lib/active_directory/generic_server.svg;" parent="1" vertex="1">
          <mxGeometry x="370" y="60" width="28.000000000000004" height="50" as="geometry" />
        </mxCell>
        <mxCell id="-NY3NpNkmHzMiphdb3_H-5" value="" style="image;aspect=fixed;perimeter=ellipsePerimeter;html=1;align=center;shadow=0;dashed=0;spacingTop=3;image=img/lib/active_directory/databases.svg;" parent="1" vertex="1">
          <mxGeometry x="640" y="60" width="50" height="49" as="geometry" />
        </mxCell>
        <mxCell id="-NY3NpNkmHzMiphdb3_H-6" style="edgeStyle=orthogonalEdgeStyle;rounded=0;orthogonalLoop=1;jettySize=auto;html=1;exitX=1;exitY=0.25;exitDx=0;exitDy=0;entryX=-0.09;entryY=0.264;entryDx=0;entryDy=0;entryPerimeter=0;" parent="1" source="-NY3NpNkmHzMiphdb3_H-1" target="-NY3NpNkmHzMiphdb3_H-4" edge="1">
          <mxGeometry relative="1" as="geometry" />
        </mxCell>
        <mxCell id="-NY3NpNkmHzMiphdb3_H-7" value="POST&lt;br&gt;/user" style="text;html=1;align=center;verticalAlign=middle;resizable=0;points=[];autosize=1;strokeColor=none;fillColor=none;" parent="1" vertex="1">
          <mxGeometry x="105" y="20" width="60" height="40" as="geometry" />
        </mxCell>
        <mxCell id="-NY3NpNkmHzMiphdb3_H-8" value="req{&lt;br&gt;name,&lt;br&gt;email,&lt;br&gt;password&lt;br&gt;}" style="text;html=1;align=center;verticalAlign=middle;resizable=0;points=[];autosize=1;strokeColor=none;fillColor=none;" parent="1" vertex="1">
          <mxGeometry x="240" width="70" height="90" as="geometry" />
        </mxCell>
        <mxCell id="-NY3NpNkmHzMiphdb3_H-9" style="edgeStyle=orthogonalEdgeStyle;rounded=0;orthogonalLoop=1;jettySize=auto;html=1;exitX=0.25;exitY=1;exitDx=0;exitDy=0;entryX=0.328;entryY=-0.335;entryDx=0;entryDy=0;entryPerimeter=0;" parent="1" source="-NY3NpNkmHzMiphdb3_H-4" edge="1">
          <mxGeometry relative="1" as="geometry">
            <mxPoint x="377.84000000000003" y="204.47249999999997" as="targetPoint" />
          </mxGeometry>
        </mxCell>
        <mxCell id="-NY3NpNkmHzMiphdb3_H-10" value="send an email&amp;nbsp;&lt;br&gt;to this user &lt;br&gt;includes token" style="text;html=1;align=center;verticalAlign=middle;resizable=0;points=[];autosize=1;strokeColor=none;fillColor=none;" parent="1" vertex="1">
          <mxGeometry x="380" y="123" width="100" height="60" as="geometry" />
        </mxCell>
        <mxCell id="-NY3NpNkmHzMiphdb3_H-11" value="save in db with verified status false" style="text;html=1;align=center;verticalAlign=middle;resizable=0;points=[];autosize=1;strokeColor=none;fillColor=none;" parent="1" vertex="1">
          <mxGeometry x="413.5" y="50" width="210" height="30" as="geometry" />
        </mxCell>
        <mxCell id="-NY3NpNkmHzMiphdb3_H-12" value="" style="html=1;verticalLabelPosition=bottom;align=center;labelBackgroundColor=#ffffff;verticalAlign=top;strokeWidth=2;strokeColor=#0080F0;shadow=0;dashed=0;shape=mxgraph.ios7.icons.mail;" parent="1" vertex="1">
          <mxGeometry x="360" y="210" width="30" height="16.5" as="geometry" />
        </mxCell>
        <mxCell id="-NY3NpNkmHzMiphdb3_H-13" style="edgeStyle=orthogonalEdgeStyle;rounded=0;orthogonalLoop=1;jettySize=auto;html=1;exitX=1;exitY=0.25;exitDx=0;exitDy=0;entryX=0;entryY=0.25;entryDx=0;entryDy=0;" parent="1" source="-NY3NpNkmHzMiphdb3_H-14" target="-NY3NpNkmHzMiphdb3_H-16" edge="1">
          <mxGeometry relative="1" as="geometry" />
        </mxCell>
        <mxCell id="-NY3NpNkmHzMiphdb3_H-14" value="" style="image;aspect=fixed;perimeter=ellipsePerimeter;html=1;align=center;shadow=0;dashed=0;spacingTop=3;image=img/lib/active_directory/vista_terminal.svg;" parent="1" vertex="1">
          <mxGeometry x="165" y="310" width="32.5" height="50" as="geometry" />
        </mxCell>
        <mxCell id="-NY3NpNkmHzMiphdb3_H-15" style="edgeStyle=orthogonalEdgeStyle;rounded=0;orthogonalLoop=1;jettySize=auto;html=1;exitX=0;exitY=0.75;exitDx=0;exitDy=0;entryX=1;entryY=0.75;entryDx=0;entryDy=0;" parent="1" source="-NY3NpNkmHzMiphdb3_H-16" target="-NY3NpNkmHzMiphdb3_H-14" edge="1">
          <mxGeometry relative="1" as="geometry" />
        </mxCell>
        <mxCell id="-NY3NpNkmHzMiphdb3_H-16" value="" style="image;aspect=fixed;perimeter=ellipsePerimeter;html=1;align=center;shadow=0;dashed=0;spacingTop=3;image=img/lib/active_directory/generic_server.svg;" parent="1" vertex="1">
          <mxGeometry x="375" y="310" width="28.000000000000004" height="50" as="geometry" />
        </mxCell>
        <mxCell id="-NY3NpNkmHzMiphdb3_H-17" value="" style="image;aspect=fixed;perimeter=ellipsePerimeter;html=1;align=center;shadow=0;dashed=0;spacingTop=3;image=img/lib/active_directory/databases.svg;" parent="1" vertex="1">
          <mxGeometry x="645" y="311" width="50" height="49" as="geometry" />
        </mxCell>
        <mxCell id="-NY3NpNkmHzMiphdb3_H-18" value="GET&lt;br&gt;/user/verify/{token}" style="text;html=1;align=center;verticalAlign=middle;resizable=0;points=[];autosize=1;strokeColor=none;fillColor=none;" parent="1" vertex="1">
          <mxGeometry x="70" y="263" width="120" height="40" as="geometry" />
        </mxCell>
        <mxCell id="-NY3NpNkmHzMiphdb3_H-19" value="req{&lt;br&gt;token in params&lt;br&gt;}" style="text;html=1;align=center;verticalAlign=middle;resizable=0;points=[];autosize=1;strokeColor=none;fillColor=none;" parent="1" vertex="1">
          <mxGeometry x="220" y="263" width="110" height="60" as="geometry" />
        </mxCell>
        <mxCell id="-NY3NpNkmHzMiphdb3_H-20" style="edgeStyle=orthogonalEdgeStyle;rounded=0;orthogonalLoop=1;jettySize=auto;html=1;exitX=1;exitY=0.5;exitDx=0;exitDy=0;entryX=0.5;entryY=1;entryDx=0;entryDy=0;" parent="1" source="-NY3NpNkmHzMiphdb3_H-24" target="-NY3NpNkmHzMiphdb3_H-17" edge="1">
          <mxGeometry relative="1" as="geometry" />
        </mxCell>
        <mxCell id="-NY3NpNkmHzMiphdb3_H-21" value="YES" style="edgeLabel;html=1;align=center;verticalAlign=middle;resizable=0;points=[];" parent="-NY3NpNkmHzMiphdb3_H-20" vertex="1" connectable="0">
          <mxGeometry x="-0.8713" y="2" relative="1" as="geometry">
            <mxPoint as="offset" />
          </mxGeometry>
        </mxCell>
        <mxCell id="-NY3NpNkmHzMiphdb3_H-22" style="edgeStyle=orthogonalEdgeStyle;rounded=0;orthogonalLoop=1;jettySize=auto;html=1;" parent="1" source="-NY3NpNkmHzMiphdb3_H-24" edge="1">
          <mxGeometry relative="1" as="geometry">
            <mxPoint x="269.9999999999999" y="430" as="targetPoint" />
          </mxGeometry>
        </mxCell>
        <mxCell id="-NY3NpNkmHzMiphdb3_H-23" value="NO" style="edgeLabel;html=1;align=center;verticalAlign=middle;resizable=0;points=[];" parent="-NY3NpNkmHzMiphdb3_H-22" vertex="1" connectable="0">
          <mxGeometry x="-0.1379" relative="1" as="geometry">
            <mxPoint as="offset" />
          </mxGeometry>
        </mxCell>
        <mxCell id="-NY3NpNkmHzMiphdb3_H-24" value="token&lt;br&gt;is&lt;br&gt;verified" style="rhombus;whiteSpace=wrap;html=1;" parent="1" vertex="1">
          <mxGeometry x="336" y="390" width="96" height="80" as="geometry" />
        </mxCell>
        <mxCell id="-NY3NpNkmHzMiphdb3_H-25" style="edgeStyle=orthogonalEdgeStyle;rounded=0;orthogonalLoop=1;jettySize=auto;html=1;entryX=0.552;entryY=0;entryDx=0;entryDy=0;entryPerimeter=0;" parent="1" source="-NY3NpNkmHzMiphdb3_H-16" target="-NY3NpNkmHzMiphdb3_H-24" edge="1">
          <mxGeometry relative="1" as="geometry" />
        </mxCell>
        <mxCell id="-NY3NpNkmHzMiphdb3_H-26" value="update verified status &lt;br&gt;in db to true" style="text;html=1;align=center;verticalAlign=middle;resizable=0;points=[];autosize=1;strokeColor=none;fillColor=none;" parent="1" vertex="1">
          <mxGeometry x="480" y="390" width="140" height="40" as="geometry" />
        </mxCell>
        <mxCell id="-NY3NpNkmHzMiphdb3_H-27" value="&lt;font style=&quot;font-size: 9px;&quot;&gt;send failure message&lt;/font&gt;" style="whiteSpace=wrap;html=1;direction=south;" parent="1" vertex="1">
          <mxGeometry x="180" y="420" width="90" height="20" as="geometry" />
        </mxCell>
        <mxCell id="-NY3NpNkmHzMiphdb3_H-28" value="&lt;p style=&quot;line-height: 40%;&quot;&gt;&lt;font style=&quot;font-size: 6px;&quot;&gt;SUCCESS&lt;br&gt;{msg:&quot;verified&quot;}&lt;br&gt;FAILURE&lt;br&gt;{msg:failure}&lt;/font&gt;&lt;br&gt;&lt;/p&gt;" style="whiteSpace=wrap;html=1;" parent="1" vertex="1">
          <mxGeometry x="250" y="350" width="60" height="40" as="geometry" />
        </mxCell>
        <mxCell id="-NY3NpNkmHzMiphdb3_H-29" value="&lt;p style=&quot;line-height: 50%;&quot;&gt;&lt;font style=&quot;font-size: 8px;&quot;&gt;keep verified false&lt;br&gt;user can&#39;t login&lt;/font&gt;&lt;br&gt;&lt;/p&gt;" style="text;html=1;align=center;verticalAlign=middle;resizable=0;points=[];autosize=1;strokeColor=none;fillColor=none;" parent="1" vertex="1">
          <mxGeometry x="260" y="430" width="90" height="50" as="geometry" />
        </mxCell>
        <mxCell id="-NY3NpNkmHzMiphdb3_H-30" style="edgeStyle=orthogonalEdgeStyle;rounded=0;orthogonalLoop=1;jettySize=auto;html=1;exitX=1;exitY=0.25;exitDx=0;exitDy=0;entryX=0;entryY=0.25;entryDx=0;entryDy=0;" parent="1" source="-NY3NpNkmHzMiphdb3_H-31" target="-NY3NpNkmHzMiphdb3_H-33" edge="1">
          <mxGeometry relative="1" as="geometry" />
        </mxCell>
        <mxCell id="-NY3NpNkmHzMiphdb3_H-31" value="" style="image;aspect=fixed;perimeter=ellipsePerimeter;html=1;align=center;shadow=0;dashed=0;spacingTop=3;image=img/lib/active_directory/vista_terminal.svg;" parent="1" vertex="1">
          <mxGeometry x="160" y="580" width="32.5" height="50" as="geometry" />
        </mxCell>
        <mxCell id="-NY3NpNkmHzMiphdb3_H-32" style="edgeStyle=orthogonalEdgeStyle;rounded=0;orthogonalLoop=1;jettySize=auto;html=1;exitX=0;exitY=0.75;exitDx=0;exitDy=0;entryX=1;entryY=0.75;entryDx=0;entryDy=0;" parent="1" source="-NY3NpNkmHzMiphdb3_H-33" target="-NY3NpNkmHzMiphdb3_H-31" edge="1">
          <mxGeometry relative="1" as="geometry" />
        </mxCell>
        <mxCell id="-NY3NpNkmHzMiphdb3_H-33" value="" style="image;aspect=fixed;perimeter=ellipsePerimeter;html=1;align=center;shadow=0;dashed=0;spacingTop=3;image=img/lib/active_directory/generic_server.svg;" parent="1" vertex="1">
          <mxGeometry x="370" y="580" width="28.000000000000004" height="50" as="geometry" />
        </mxCell>
        <mxCell id="-NY3NpNkmHzMiphdb3_H-34" style="edgeStyle=orthogonalEdgeStyle;rounded=0;orthogonalLoop=1;jettySize=auto;html=1;exitX=0.5;exitY=1;exitDx=0;exitDy=0;entryX=1;entryY=0.5;entryDx=0;entryDy=0;" parent="1" source="-NY3NpNkmHzMiphdb3_H-35" target="-NY3NpNkmHzMiphdb3_H-44" edge="1">
          <mxGeometry relative="1" as="geometry" />
        </mxCell>
        <mxCell id="-NY3NpNkmHzMiphdb3_H-35" value="" style="image;aspect=fixed;perimeter=ellipsePerimeter;html=1;align=center;shadow=0;dashed=0;spacingTop=3;image=img/lib/active_directory/databases.svg;" parent="1" vertex="1">
          <mxGeometry x="640" y="581" width="50" height="49" as="geometry" />
        </mxCell>
        <mxCell id="-NY3NpNkmHzMiphdb3_H-36" value="POST&lt;br&gt;/user/login" style="text;html=1;align=center;verticalAlign=middle;resizable=0;points=[];autosize=1;strokeColor=none;fillColor=none;" parent="1" vertex="1">
          <mxGeometry x="90" y="540" width="80" height="40" as="geometry" />
        </mxCell>
        <mxCell id="-NY3NpNkmHzMiphdb3_H-37" value="req{&lt;br&gt;name,&lt;br&gt;email&lt;br&gt;}" style="text;html=1;align=center;verticalAlign=middle;resizable=0;points=[];autosize=1;strokeColor=none;fillColor=none;" parent="1" vertex="1">
          <mxGeometry x="250" y="525" width="60" height="70" as="geometry" />
        </mxCell>
        <mxCell id="-NY3NpNkmHzMiphdb3_H-38" value="&lt;p style=&quot;line-height: 40%;&quot;&gt;&lt;br&gt;&lt;/p&gt;" style="text;html=1;align=center;verticalAlign=middle;resizable=0;points=[];autosize=1;strokeColor=none;fillColor=none;" parent="1" vertex="1">
          <mxGeometry x="270" y="633" width="20" height="40" as="geometry" />
        </mxCell>
        <mxCell id="-NY3NpNkmHzMiphdb3_H-39" value="&lt;p style=&quot;line-height: 40%;&quot;&gt;&lt;font style=&quot;font-size: 6px;&quot;&gt;SUCCESS&lt;/font&gt;&lt;br style=&quot;border-color: var(--border-color); font-size: 6px;&quot;&gt;&lt;span style=&quot;font-size: 6px;&quot;&gt;{&lt;/span&gt;&lt;br style=&quot;border-color: var(--border-color); font-size: 6px;&quot;&gt;&lt;span style=&quot;font-size: 6px;&quot;&gt;_id,&lt;/span&gt;&lt;br style=&quot;border-color: var(--border-color); font-size: 6px;&quot;&gt;&lt;span style=&quot;font-size: 6px;&quot;&gt;name,&lt;/span&gt;&lt;br style=&quot;border-color: var(--border-color); font-size: 6px;&quot;&gt;&lt;span style=&quot;font-size: 6px;&quot;&gt;email,&lt;/span&gt;&lt;br style=&quot;border-color: var(--border-color); font-size: 6px;&quot;&gt;&lt;span style=&quot;font-size: 6px;&quot;&gt;accessToken,&lt;/span&gt;&lt;br style=&quot;border-color: var(--border-color); font-size: 6px;&quot;&gt;&lt;span style=&quot;font-size: 6px;&quot;&gt;refreshToken&lt;/span&gt;&lt;br style=&quot;border-color: var(--border-color); font-size: 6px;&quot;&gt;&lt;span style=&quot;font-size: 6px;&quot;&gt;}&lt;/span&gt;&lt;br style=&quot;border-color: var(--border-color); font-size: 6px;&quot;&gt;&lt;span style=&quot;font-size: 6px;&quot;&gt;FAILURE&lt;/span&gt;&lt;br style=&quot;border-color: var(--border-color); font-size: 6px;&quot;&gt;&lt;span style=&quot;font-size: 6px;&quot;&gt;{msg:&quot;failed&quot;}&lt;/span&gt;&lt;/p&gt;" style="rounded=0;whiteSpace=wrap;html=1;" parent="1" vertex="1">
          <mxGeometry x="240" y="620" width="50" height="80" as="geometry" />
        </mxCell>
        <mxCell id="-NY3NpNkmHzMiphdb3_H-40" value="check if the user credentials are correct" style="text;html=1;align=center;verticalAlign=middle;resizable=0;points=[];autosize=1;strokeColor=none;fillColor=none;" parent="1" vertex="1">
          <mxGeometry x="398" y="565" width="230" height="30" as="geometry" />
        </mxCell>
        <mxCell id="-NY3NpNkmHzMiphdb3_H-41" style="edgeStyle=orthogonalEdgeStyle;rounded=0;orthogonalLoop=1;jettySize=auto;html=1;exitX=1;exitY=0.25;exitDx=0;exitDy=0;entryX=-0.086;entryY=0.257;entryDx=0;entryDy=0;entryPerimeter=0;" parent="1" source="-NY3NpNkmHzMiphdb3_H-33" target="-NY3NpNkmHzMiphdb3_H-35" edge="1">
          <mxGeometry relative="1" as="geometry" />
        </mxCell>
        <mxCell id="-NY3NpNkmHzMiphdb3_H-42" style="edgeStyle=orthogonalEdgeStyle;rounded=0;orthogonalLoop=1;jettySize=auto;html=1;exitX=0;exitY=0.5;exitDx=0;exitDy=0;entryX=0.5;entryY=1;entryDx=0;entryDy=0;" parent="1" source="-NY3NpNkmHzMiphdb3_H-44" target="-NY3NpNkmHzMiphdb3_H-33" edge="1">
          <mxGeometry relative="1" as="geometry" />
        </mxCell>
        <mxCell id="-NY3NpNkmHzMiphdb3_H-43" value="YES" style="edgeLabel;html=1;align=center;verticalAlign=middle;resizable=0;points=[];" parent="-NY3NpNkmHzMiphdb3_H-42" vertex="1" connectable="0">
          <mxGeometry x="-0.3774" y="1" relative="1" as="geometry">
            <mxPoint as="offset" />
          </mxGeometry>
        </mxCell>
        <mxCell id="-NY3NpNkmHzMiphdb3_H-44" value="Credentials&lt;br&gt;are correct" style="rhombus;whiteSpace=wrap;html=1;" parent="1" vertex="1">
          <mxGeometry x="500" y="620" width="120" height="80" as="geometry" />
        </mxCell>
        <mxCell id="-NY3NpNkmHzMiphdb3_H-45" style="edgeStyle=orthogonalEdgeStyle;rounded=0;orthogonalLoop=1;jettySize=auto;html=1;exitX=0.5;exitY=1;exitDx=0;exitDy=0;entryX=0.262;entryY=1;entryDx=0;entryDy=0;entryPerimeter=0;" parent="1" source="-NY3NpNkmHzMiphdb3_H-44" target="-NY3NpNkmHzMiphdb3_H-33" edge="1">
          <mxGeometry relative="1" as="geometry" />
        </mxCell>
        <mxCell id="-NY3NpNkmHzMiphdb3_H-46" value="NO" style="edgeLabel;html=1;align=center;verticalAlign=middle;resizable=0;points=[];" parent="-NY3NpNkmHzMiphdb3_H-45" vertex="1" connectable="0">
          <mxGeometry x="-0.7151" relative="1" as="geometry">
            <mxPoint as="offset" />
          </mxGeometry>
        </mxCell>
        <mxCell id="-NY3NpNkmHzMiphdb3_H-47" value="&lt;p style=&quot;line-height: 40%;&quot;&gt;&lt;br style=&quot;border-color: var(--border-color); font-size: 6px;&quot;&gt;&lt;span style=&quot;font-size: 6px;&quot;&gt;{&lt;/span&gt;&lt;br style=&quot;border-color: var(--border-color); font-size: 6px;&quot;&gt;&lt;span style=&quot;font-size: 6px;&quot;&gt;_id,&lt;/span&gt;&lt;br style=&quot;border-color: var(--border-color); font-size: 6px;&quot;&gt;&lt;span style=&quot;font-size: 6px;&quot;&gt;name,&lt;/span&gt;&lt;br style=&quot;border-color: var(--border-color); font-size: 6px;&quot;&gt;&lt;span style=&quot;font-size: 6px;&quot;&gt;email,&lt;/span&gt;&lt;br style=&quot;border-color: var(--border-color); font-size: 6px;&quot;&gt;&lt;span style=&quot;font-size: 6px;&quot;&gt;accessToken,&lt;/span&gt;&lt;br style=&quot;border-color: var(--border-color); font-size: 6px;&quot;&gt;&lt;span style=&quot;font-size: 6px;&quot;&gt;refreshToken&lt;/span&gt;&lt;br style=&quot;border-color: var(--border-color); font-size: 6px;&quot;&gt;&lt;span style=&quot;font-size: 6px;&quot;&gt;}&lt;/span&gt;&lt;br style=&quot;border-color: var(--border-color); font-size: 6px;&quot;&gt;&lt;br style=&quot;border-color: var(--border-color); font-size: 6px;&quot;&gt;&lt;br&gt;&lt;/p&gt;" style="rounded=0;whiteSpace=wrap;html=1;" parent="1" vertex="1">
          <mxGeometry x="410" y="610" width="38" height="50" as="geometry" />
        </mxCell>
        <mxCell id="-NY3NpNkmHzMiphdb3_H-48" value="" style="image;aspect=fixed;perimeter=ellipsePerimeter;html=1;align=center;shadow=0;dashed=0;spacingTop=3;image=img/lib/active_directory/generic_server.svg;" parent="1" vertex="1">
          <mxGeometry x="366.69" y="770" width="31.31" height="55.9" as="geometry" />
        </mxCell>
        <mxCell id="-NY3NpNkmHzMiphdb3_H-49" value="&lt;div style=&quot;font-size: 13px;&quot;&gt;&lt;font style=&quot;background-color: initial;&quot;&gt;POST&lt;/font&gt;&lt;/div&gt;&lt;div style=&quot;font-size: 13px;&quot;&gt;&lt;font style=&quot;background-color: initial;&quot;&gt;/user &lt;/font&gt;&lt;span style=&quot;background-color: initial;&quot;&gt;/forget-password&lt;/span&gt;&lt;br&gt;&lt;/div&gt;" style="text;html=1;align=center;verticalAlign=middle;resizable=0;points=[];autosize=1;strokeColor=none;fillColor=none;" parent="1" vertex="1">
          <mxGeometry x="75" y="730" width="150" height="40" as="geometry" />
        </mxCell>
        <mxCell id="-NY3NpNkmHzMiphdb3_H-51" value="&lt;div style=&quot;font-size: 13px;&quot;&gt;&lt;font style=&quot;font-size: 13px;&quot;&gt;request body{&lt;br&gt;email&lt;br&gt;&lt;/font&gt;&lt;/div&gt;&lt;div style=&quot;font-size: 13px;&quot;&gt;&lt;font style=&quot;font-size: 13px;&quot;&gt;}&lt;/font&gt;&lt;/div&gt;" style="text;html=1;align=center;verticalAlign=middle;resizable=0;points=[];autosize=1;strokeColor=none;fillColor=none;" parent="1" vertex="1">
          <mxGeometry x="230" y="740" width="100" height="60" as="geometry" />
        </mxCell>
        <mxCell id="-NY3NpNkmHzMiphdb3_H-76" style="edgeStyle=orthogonalEdgeStyle;rounded=0;orthogonalLoop=1;jettySize=auto;html=1;exitX=0.5;exitY=1;exitDx=0;exitDy=0;entryX=1;entryY=0.5;entryDx=0;entryDy=0;" parent="1" source="-NY3NpNkmHzMiphdb3_H-52" target="-NY3NpNkmHzMiphdb3_H-60" edge="1">
          <mxGeometry relative="1" as="geometry" />
        </mxCell>
        <mxCell id="-NY3NpNkmHzMiphdb3_H-52" value="" style="image;aspect=fixed;perimeter=ellipsePerimeter;html=1;align=center;shadow=0;dashed=0;spacingTop=3;image=img/lib/active_directory/databases.svg;" parent="1" vertex="1">
          <mxGeometry x="638.98" y="770" width="51.02" height="50" as="geometry" />
        </mxCell>
        <mxCell id="-NY3NpNkmHzMiphdb3_H-53" value="Server verifies email address in database" style="text;html=1;align=center;verticalAlign=middle;resizable=0;points=[];autosize=1;strokeColor=none;fillColor=none;" parent="1" vertex="1">
          <mxGeometry x="393.5" y="760" width="250" height="30" as="geometry" />
        </mxCell>
        <mxCell id="-NY3NpNkmHzMiphdb3_H-54" value="SUCCESS&lt;br&gt;{msg:&quot;email has been sent&quot;}&lt;br&gt;FAILURE&lt;br&gt;{msg:&quot;email is not found&quot;}" style="text;html=1;align=center;verticalAlign=middle;resizable=0;points=[];autosize=1;strokeColor=none;fillColor=none;" parent="1" vertex="1">
          <mxGeometry x="200" y="810" width="170" height="70" as="geometry" />
        </mxCell>
        <mxCell id="-NY3NpNkmHzMiphdb3_H-57" style="edgeStyle=orthogonalEdgeStyle;rounded=0;orthogonalLoop=1;jettySize=auto;html=1;" parent="1" edge="1">
          <mxGeometry relative="1" as="geometry">
            <mxPoint x="616" y="795.0000000000001" as="targetPoint" />
            <mxPoint x="397.99999999999994" y="795.5000000000001" as="sourcePoint" />
          </mxGeometry>
        </mxCell>
        <mxCell id="-NY3NpNkmHzMiphdb3_H-83" style="edgeStyle=orthogonalEdgeStyle;rounded=0;orthogonalLoop=1;jettySize=auto;html=1;exitX=0;exitY=0.5;exitDx=0;exitDy=0;entryX=1;entryY=0.5;entryDx=0;entryDy=0;" parent="1" source="-NY3NpNkmHzMiphdb3_H-60" target="-NY3NpNkmHzMiphdb3_H-69" edge="1">
          <mxGeometry relative="1" as="geometry" />
        </mxCell>
        <mxCell id="-NY3NpNkmHzMiphdb3_H-84" value="NO" style="edgeLabel;html=1;align=center;verticalAlign=middle;resizable=0;points=[];" parent="-NY3NpNkmHzMiphdb3_H-83" vertex="1" connectable="0">
          <mxGeometry x="-0.0788" y="1" relative="1" as="geometry">
            <mxPoint as="offset" />
          </mxGeometry>
        </mxCell>
        <mxCell id="-NY3NpNkmHzMiphdb3_H-60" value="email is found" style="rhombus;whiteSpace=wrap;html=1;" parent="1" vertex="1">
          <mxGeometry x="502.99999999999994" y="829.08" width="94" height="81.84" as="geometry" />
        </mxCell>
        <mxCell id="-NY3NpNkmHzMiphdb3_H-69" value="failure msg" style="whiteSpace=wrap;html=1;" parent="1" vertex="1">
          <mxGeometry x="398" y="860" width="70" height="20" as="geometry" />
        </mxCell>
        <mxCell id="-NY3NpNkmHzMiphdb3_H-75" value="send email to user&lt;br style=&quot;border-color: var(--border-color);&quot;&gt;&lt;span style=&quot;&quot;&gt;includes token&lt;/span&gt;" style="whiteSpace=wrap;html=1;" parent="1" vertex="1">
          <mxGeometry x="500" y="940" width="110" height="40" as="geometry" />
        </mxCell>
        <mxCell id="-NY3NpNkmHzMiphdb3_H-81" style="edgeStyle=orthogonalEdgeStyle;rounded=0;orthogonalLoop=1;jettySize=auto;html=1;exitX=1;exitY=0.25;exitDx=0;exitDy=0;" parent="1" source="-NY3NpNkmHzMiphdb3_H-77" edge="1">
          <mxGeometry relative="1" as="geometry">
            <mxPoint x="360" y="783.6666666666667" as="targetPoint" />
          </mxGeometry>
        </mxCell>
        <mxCell id="-NY3NpNkmHzMiphdb3_H-77" value="" style="image;aspect=fixed;perimeter=ellipsePerimeter;html=1;align=center;shadow=0;dashed=0;spacingTop=3;image=img/lib/active_directory/vista_terminal.svg;" parent="1" vertex="1">
          <mxGeometry x="157.5" y="770" width="32.5" height="50" as="geometry" />
        </mxCell>
        <mxCell id="-NY3NpNkmHzMiphdb3_H-82" style="edgeStyle=orthogonalEdgeStyle;rounded=0;orthogonalLoop=1;jettySize=auto;html=1;exitX=0;exitY=0.75;exitDx=0;exitDy=0;entryX=1.072;entryY=0.823;entryDx=0;entryDy=0;entryPerimeter=0;" parent="1" source="-NY3NpNkmHzMiphdb3_H-48" target="-NY3NpNkmHzMiphdb3_H-77" edge="1">
          <mxGeometry relative="1" as="geometry" />
        </mxCell>
        <mxCell id="-NY3NpNkmHzMiphdb3_H-85" style="edgeStyle=orthogonalEdgeStyle;rounded=0;orthogonalLoop=1;jettySize=auto;html=1;exitX=0.5;exitY=1;exitDx=0;exitDy=0;entryX=0.448;entryY=0.042;entryDx=0;entryDy=0;entryPerimeter=0;" parent="1" source="-NY3NpNkmHzMiphdb3_H-60" target="-NY3NpNkmHzMiphdb3_H-75" edge="1">
          <mxGeometry relative="1" as="geometry" />
        </mxCell>
        <mxCell id="-NY3NpNkmHzMiphdb3_H-86" value="YES" style="edgeLabel;html=1;align=center;verticalAlign=middle;resizable=0;points=[];" parent="-NY3NpNkmHzMiphdb3_H-85" vertex="1" connectable="0">
          <mxGeometry x="-0.2701" relative="1" as="geometry">
            <mxPoint as="offset" />
          </mxGeometry>
        </mxCell>
        <mxCell id="-NY3NpNkmHzMiphdb3_H-87" style="edgeStyle=orthogonalEdgeStyle;rounded=0;orthogonalLoop=1;jettySize=auto;html=1;exitX=0.5;exitY=1;exitDx=0;exitDy=0;entryX=0.5;entryY=0;entryDx=0;entryDy=0;" parent="1" source="-NY3NpNkmHzMiphdb3_H-88" target="-NY3NpNkmHzMiphdb3_H-100" edge="1">
          <mxGeometry relative="1" as="geometry" />
        </mxCell>
        <mxCell id="-NY3NpNkmHzMiphdb3_H-112" style="edgeStyle=orthogonalEdgeStyle;rounded=0;orthogonalLoop=1;jettySize=auto;html=1;exitX=0;exitY=1;exitDx=0;exitDy=0;" parent="1" source="-NY3NpNkmHzMiphdb3_H-88" edge="1">
          <mxGeometry relative="1" as="geometry">
            <mxPoint x="190" y="1101.4705882352941" as="targetPoint" />
          </mxGeometry>
        </mxCell>
        <mxCell id="-NY3NpNkmHzMiphdb3_H-88" value="" style="image;aspect=fixed;perimeter=ellipsePerimeter;html=1;align=center;shadow=0;dashed=0;spacingTop=3;image=img/lib/active_directory/generic_server.svg;" parent="1" vertex="1">
          <mxGeometry x="363.82" y="1056" width="29.68" height="53" as="geometry" />
        </mxCell>
        <mxCell id="-NY3NpNkmHzMiphdb3_H-89" value="&lt;div style=&quot;font-size: 13px;&quot;&gt;&lt;font style=&quot;font-size: 13px;&quot;&gt;POST&lt;/font&gt;&lt;/div&gt;&lt;div style=&quot;font-size: 13px;&quot;&gt;&lt;font style=&quot;font-size: 13px;&quot;&gt;/user &lt;/font&gt;/reset-password/{token}&lt;/div&gt;" style="text;html=1;align=center;verticalAlign=middle;resizable=0;points=[];autosize=1;strokeColor=none;fillColor=none;" parent="1" vertex="1">
          <mxGeometry x="19.999999999999993" y="1016" width="190" height="40" as="geometry" />
        </mxCell>
        <mxCell id="-NY3NpNkmHzMiphdb3_H-114" style="edgeStyle=orthogonalEdgeStyle;rounded=0;orthogonalLoop=1;jettySize=auto;html=1;exitX=1;exitY=0.25;exitDx=0;exitDy=0;" parent="1" source="-NY3NpNkmHzMiphdb3_H-90" edge="1">
          <mxGeometry relative="1" as="geometry">
            <mxPoint x="360" y="1074.142857142857" as="targetPoint" />
          </mxGeometry>
        </mxCell>
        <mxCell id="-NY3NpNkmHzMiphdb3_H-90" value="" style="image;aspect=fixed;perimeter=ellipsePerimeter;html=1;align=center;shadow=0;dashed=0;spacingTop=3;image=img/lib/active_directory/vista_terminal.svg;" parent="1" vertex="1">
          <mxGeometry x="147.33" y="1060" width="32.67" height="50.27" as="geometry" />
        </mxCell>
        <mxCell id="-NY3NpNkmHzMiphdb3_H-91" value="&lt;div style=&quot;font-size: 13px;&quot;&gt;&lt;font style=&quot;font-size: 13px;&quot;&gt;request body{&lt;br&gt;password&lt;br&gt;&lt;/font&gt;&lt;/div&gt;&lt;div style=&quot;font-size: 13px;&quot;&gt;&lt;font style=&quot;font-size: 13px;&quot;&gt;},&lt;br&gt;token in params&lt;br&gt;&lt;/font&gt;&lt;/div&gt;" style="text;html=1;align=center;verticalAlign=middle;resizable=0;points=[];autosize=1;strokeColor=none;fillColor=none;" parent="1" vertex="1">
          <mxGeometry x="210" y="1000" width="120" height="80" as="geometry" />
        </mxCell>
        <mxCell id="-NY3NpNkmHzMiphdb3_H-92" value="" style="image;aspect=fixed;perimeter=ellipsePerimeter;html=1;align=center;shadow=0;dashed=0;spacingTop=3;image=img/lib/active_directory/databases.svg;" parent="1" vertex="1">
          <mxGeometry x="644.9999999999999" y="1060" width="50" height="49" as="geometry" />
        </mxCell>
        <mxCell id="-NY3NpNkmHzMiphdb3_H-97" value="SUCCESS&lt;br&gt;{msg:&quot;success&quot;}&lt;br&gt;FAILURE&lt;br&gt;{msg:&quot;failure&quot;}" style="text;html=1;align=center;verticalAlign=middle;resizable=0;points=[];autosize=1;strokeColor=none;fillColor=none;" parent="1" vertex="1">
          <mxGeometry x="210" y="1111" width="110" height="70" as="geometry" />
        </mxCell>
        <mxCell id="-NY3NpNkmHzMiphdb3_H-109" style="edgeStyle=orthogonalEdgeStyle;rounded=0;orthogonalLoop=1;jettySize=auto;html=1;exitX=1;exitY=0.5;exitDx=0;exitDy=0;entryX=0.5;entryY=1;entryDx=0;entryDy=0;" parent="1" source="-NY3NpNkmHzMiphdb3_H-100" target="-NY3NpNkmHzMiphdb3_H-92" edge="1">
          <mxGeometry relative="1" as="geometry" />
        </mxCell>
        <mxCell id="-NY3NpNkmHzMiphdb3_H-110" style="edgeStyle=orthogonalEdgeStyle;rounded=0;orthogonalLoop=1;jettySize=auto;html=1;exitX=0;exitY=0.5;exitDx=0;exitDy=0;" parent="1" source="-NY3NpNkmHzMiphdb3_H-100" edge="1">
          <mxGeometry relative="1" as="geometry">
            <mxPoint x="290" y="1233" as="targetPoint" />
          </mxGeometry>
        </mxCell>
        <mxCell id="-NY3NpNkmHzMiphdb3_H-100" value="token is &lt;br&gt;verified" style="rhombus;whiteSpace=wrap;html=1;" parent="1" vertex="1">
          <mxGeometry x="331.66" y="1203" width="94" height="60" as="geometry" />
        </mxCell>
        <mxCell id="-NY3NpNkmHzMiphdb3_H-104" value="&lt;div&gt;update password in db&lt;/div&gt;&lt;div&gt;&lt;br&gt;&lt;/div&gt;" style="text;html=1;align=center;verticalAlign=middle;resizable=0;points=[];autosize=1;strokeColor=none;fillColor=none;" parent="1" vertex="1">
          <mxGeometry x="520" y="1203" width="150" height="40" as="geometry" />
        </mxCell>
        <mxCell id="-NY3NpNkmHzMiphdb3_H-111" value="error msg" style="whiteSpace=wrap;html=1;" parent="1" vertex="1">
          <mxGeometry x="227.82" y="1223" width="60" height="20" as="geometry" />
        </mxCell>
        <mxCell id="-NY3NpNkmHzMiphdb3_H-137" style="edgeStyle=orthogonalEdgeStyle;rounded=0;orthogonalLoop=1;jettySize=auto;html=1;exitX=0;exitY=0.75;exitDx=0;exitDy=0;entryX=1;entryY=0.75;entryDx=0;entryDy=0;" parent="1" source="-NY3NpNkmHzMiphdb3_H-116" target="-NY3NpNkmHzMiphdb3_H-135" edge="1">
          <mxGeometry relative="1" as="geometry" />
        </mxCell>
        <mxCell id="-NY3NpNkmHzMiphdb3_H-139" style="edgeStyle=orthogonalEdgeStyle;rounded=0;orthogonalLoop=1;jettySize=auto;html=1;exitX=0.5;exitY=1;exitDx=0;exitDy=0;entryX=0.5;entryY=0;entryDx=0;entryDy=0;" parent="1" source="-NY3NpNkmHzMiphdb3_H-116" target="-NY3NpNkmHzMiphdb3_H-125" edge="1">
          <mxGeometry relative="1" as="geometry" />
        </mxCell>
        <mxCell id="-NY3NpNkmHzMiphdb3_H-116" value="" style="image;aspect=fixed;perimeter=ellipsePerimeter;html=1;align=center;shadow=0;dashed=0;spacingTop=3;image=img/lib/active_directory/generic_server.svg;" parent="1" vertex="1">
          <mxGeometry x="349.84" y="1360" width="28" height="50" as="geometry" />
        </mxCell>
        <mxCell id="-NY3NpNkmHzMiphdb3_H-117" value="&lt;div class=&quot;opblock-summary-path-description-wrapper&quot;&gt;&lt;/div&gt;&lt;span style=&quot;&quot; class=&quot;opblock-summary-method&quot;&gt;DELETE&lt;/span&gt;&lt;br&gt;/user/delete" style="text;html=1;align=center;verticalAlign=middle;resizable=0;points=[];autosize=1;strokeColor=none;fillColor=none;" parent="1" vertex="1">
          <mxGeometry x="102.5" y="1320" width="90" height="40" as="geometry" />
        </mxCell>
        <mxCell id="-NY3NpNkmHzMiphdb3_H-119" value="" style="image;aspect=fixed;perimeter=ellipsePerimeter;html=1;align=center;shadow=0;dashed=0;spacingTop=3;image=img/lib/active_directory/databases.svg;" parent="1" vertex="1">
          <mxGeometry x="645" y="1360" width="50" height="49" as="geometry" />
        </mxCell>
        <mxCell id="-NY3NpNkmHzMiphdb3_H-121" style="edgeStyle=orthogonalEdgeStyle;rounded=0;orthogonalLoop=1;jettySize=auto;html=1;" parent="1" source="-NY3NpNkmHzMiphdb3_H-125" edge="1">
          <mxGeometry relative="1" as="geometry">
            <mxPoint x="671" y="1420" as="targetPoint" />
            <mxPoint x="369.99736842105256" y="1534.0926315789475" as="sourcePoint" />
            <Array as="points">
              <mxPoint x="671" y="1500" />
            </Array>
          </mxGeometry>
        </mxCell>
        <mxCell id="-NY3NpNkmHzMiphdb3_H-140" value="YES" style="edgeLabel;html=1;align=center;verticalAlign=middle;resizable=0;points=[];" parent="-NY3NpNkmHzMiphdb3_H-121" vertex="1" connectable="0">
          <mxGeometry x="-0.7046" y="-1" relative="1" as="geometry">
            <mxPoint as="offset" />
          </mxGeometry>
        </mxCell>
        <mxCell id="-NY3NpNkmHzMiphdb3_H-126" value="failure message" style="whiteSpace=wrap;html=1;" parent="1" vertex="1">
          <mxGeometry x="314.16" y="1580" width="95.84" height="20" as="geometry" />
        </mxCell>
        <mxCell id="-NY3NpNkmHzMiphdb3_H-127" value="req{&lt;br&gt;accessToken in header&lt;br&gt;}" style="text;html=1;align=center;verticalAlign=middle;resizable=0;points=[];autosize=1;strokeColor=none;fillColor=none;" parent="1" vertex="1">
          <mxGeometry x="186" y="1318" width="150" height="60" as="geometry" />
        </mxCell>
        <mxCell id="-NY3NpNkmHzMiphdb3_H-128" value="delete user in db" style="text;html=1;align=center;verticalAlign=middle;resizable=0;points=[];autosize=1;strokeColor=none;fillColor=none;" parent="1" vertex="1">
          <mxGeometry x="503" y="1470" width="110" height="30" as="geometry" />
        </mxCell>
        <mxCell id="-NY3NpNkmHzMiphdb3_H-129" value="SUCCESS&lt;br&gt;{msg:&quot;user has been deleted&quot;}&lt;br&gt;FAILURE&lt;br&gt;{msg:&quot;failure message&quot;}" style="text;html=1;align=center;verticalAlign=middle;resizable=0;points=[];autosize=1;strokeColor=none;fillColor=none;" parent="1" vertex="1">
          <mxGeometry x="175" y="1390" width="180" height="70" as="geometry" />
        </mxCell>
        <mxCell id="-NY3NpNkmHzMiphdb3_H-133" value="" style="edgeStyle=orthogonalEdgeStyle;rounded=0;orthogonalLoop=1;jettySize=auto;html=1;" parent="1" target="-NY3NpNkmHzMiphdb3_H-125" edge="1">
          <mxGeometry relative="1" as="geometry">
            <mxPoint x="670.5699999999999" y="1434.04" as="targetPoint" />
            <mxPoint x="369.99736842105256" y="1534.0926315789475" as="sourcePoint" />
            <Array as="points" />
          </mxGeometry>
        </mxCell>
        <mxCell id="-NY3NpNkmHzMiphdb3_H-141" style="edgeStyle=orthogonalEdgeStyle;rounded=0;orthogonalLoop=1;jettySize=auto;html=1;exitX=0.5;exitY=1;exitDx=0;exitDy=0;entryX=0.5;entryY=0;entryDx=0;entryDy=0;" parent="1" source="-NY3NpNkmHzMiphdb3_H-125" target="-NY3NpNkmHzMiphdb3_H-126" edge="1">
          <mxGeometry relative="1" as="geometry" />
        </mxCell>
        <mxCell id="-NY3NpNkmHzMiphdb3_H-142" value="NO" style="edgeLabel;html=1;align=center;verticalAlign=middle;resizable=0;points=[];" parent="-NY3NpNkmHzMiphdb3_H-141" vertex="1" connectable="0">
          <mxGeometry x="-0.137" relative="1" as="geometry">
            <mxPoint as="offset" />
          </mxGeometry>
        </mxCell>
        <mxCell id="-NY3NpNkmHzMiphdb3_H-125" value="verify access&lt;br&gt;token" style="rhombus;whiteSpace=wrap;html=1;" parent="1" vertex="1">
          <mxGeometry x="310" y="1460" width="106.16" height="80" as="geometry" />
        </mxCell>
        <mxCell id="-NY3NpNkmHzMiphdb3_H-136" style="edgeStyle=orthogonalEdgeStyle;rounded=0;orthogonalLoop=1;jettySize=auto;html=1;exitX=1;exitY=0.25;exitDx=0;exitDy=0;entryX=0;entryY=0.25;entryDx=0;entryDy=0;" parent="1" source="-NY3NpNkmHzMiphdb3_H-135" target="-NY3NpNkmHzMiphdb3_H-116" edge="1">
          <mxGeometry relative="1" as="geometry">
            <mxPoint x="300" y="1374" as="targetPoint" />
          </mxGeometry>
        </mxCell>
        <mxCell id="-NY3NpNkmHzMiphdb3_H-135" value="" style="image;aspect=fixed;perimeter=ellipsePerimeter;html=1;align=center;shadow=0;dashed=0;spacingTop=3;image=img/lib/active_directory/vista_terminal.svg;" parent="1" vertex="1">
          <mxGeometry x="144" y="1360" width="32.67" height="50.27" as="geometry" />
        </mxCell>
        <mxCell id="-NY3NpNkmHzMiphdb3_H-160" style="edgeStyle=orthogonalEdgeStyle;rounded=0;orthogonalLoop=1;jettySize=auto;html=1;exitX=0;exitY=0.75;exitDx=0;exitDy=0;entryX=1;entryY=0.75;entryDx=0;entryDy=0;" parent="1" source="-NY3NpNkmHzMiphdb3_H-162" target="-NY3NpNkmHzMiphdb3_H-176" edge="1">
          <mxGeometry relative="1" as="geometry" />
        </mxCell>
        <mxCell id="-NY3NpNkmHzMiphdb3_H-161" style="edgeStyle=orthogonalEdgeStyle;rounded=0;orthogonalLoop=1;jettySize=auto;html=1;exitX=0.5;exitY=1;exitDx=0;exitDy=0;entryX=0.5;entryY=0;entryDx=0;entryDy=0;" parent="1" source="-NY3NpNkmHzMiphdb3_H-162" target="-NY3NpNkmHzMiphdb3_H-174" edge="1">
          <mxGeometry relative="1" as="geometry" />
        </mxCell>
        <mxCell id="-NY3NpNkmHzMiphdb3_H-162" value="" style="image;aspect=fixed;perimeter=ellipsePerimeter;html=1;align=center;shadow=0;dashed=0;spacingTop=3;image=img/lib/active_directory/generic_server.svg;" parent="1" vertex="1">
          <mxGeometry x="380.01" y="4127.75" width="28" height="50" as="geometry" />
        </mxCell>
        <mxCell id="-NY3NpNkmHzMiphdb3_H-163" value="&lt;div class=&quot;opblock-summary-path-description-wrapper&quot;&gt;&lt;/div&gt;&lt;b&gt;&lt;span class=&quot;opblock-summary-method&quot;&gt;GET&lt;/span&gt;&lt;span&gt;&lt;br&gt;/user/refresh-token&lt;br&gt;&lt;/span&gt;&lt;/b&gt;" style="text;html=1;align=center;verticalAlign=middle;resizable=0;points=[];autosize=1;strokeColor=none;fillColor=none;" parent="1" vertex="1">
          <mxGeometry x="82.5" y="4070" width="130" height="40" as="geometry" />
        </mxCell>
        <mxCell id="-NY3NpNkmHzMiphdb3_H-164" value="" style="image;aspect=fixed;perimeter=ellipsePerimeter;html=1;align=center;shadow=0;dashed=0;spacingTop=3;image=img/lib/active_directory/databases.svg;" parent="1" vertex="1">
          <mxGeometry x="662.42" y="4145.75" width="45.15" height="44.25" as="geometry" />
        </mxCell>
        <mxCell id="-NY3NpNkmHzMiphdb3_H-167" value="failure message" style="whiteSpace=wrap;html=1;" parent="1" vertex="1">
          <mxGeometry x="344.33000000000004" y="4347.75" width="95.84" height="20" as="geometry" />
        </mxCell>
        <mxCell id="-NY3NpNkmHzMiphdb3_H-168" value="req{&lt;br&gt;refreshToken in header&lt;br&gt;}" style="text;html=1;align=center;verticalAlign=middle;resizable=0;points=[];autosize=1;strokeColor=none;fillColor=none;" parent="1" vertex="1">
          <mxGeometry x="235.17" y="4097.75" width="150" height="60" as="geometry" />
        </mxCell>
        <mxCell id="-NY3NpNkmHzMiphdb3_H-169" value="make new accessToken &lt;br&gt;and save in db" style="text;html=1;align=center;verticalAlign=middle;resizable=0;points=[];autosize=1;strokeColor=none;fillColor=none;" parent="1" vertex="1">
          <mxGeometry x="540" y="4220" width="150" height="40" as="geometry" />
        </mxCell>
        <mxCell id="-NY3NpNkmHzMiphdb3_H-170" value="SUCCESS&lt;br&gt;{accessToken:&quot;abcd..&quot;}&lt;br&gt;FAILURE&lt;br&gt;{msg:&quot;failure message&quot;}" style="text;html=1;align=center;verticalAlign=middle;resizable=0;points=[];autosize=1;strokeColor=none;fillColor=none;" parent="1" vertex="1">
          <mxGeometry x="220.17" y="4157.75" width="150" height="70" as="geometry" />
        </mxCell>
        <mxCell id="-NY3NpNkmHzMiphdb3_H-171" value="" style="edgeStyle=orthogonalEdgeStyle;rounded=0;orthogonalLoop=1;jettySize=auto;html=1;" parent="1" target="-NY3NpNkmHzMiphdb3_H-174" edge="1">
          <mxGeometry relative="1" as="geometry">
            <mxPoint x="700.7399999999999" y="4201.79" as="targetPoint" />
            <mxPoint x="400.1673684210526" y="4301.8426315789475" as="sourcePoint" />
            <Array as="points" />
          </mxGeometry>
        </mxCell>
        <mxCell id="-NY3NpNkmHzMiphdb3_H-172" style="edgeStyle=orthogonalEdgeStyle;rounded=0;orthogonalLoop=1;jettySize=auto;html=1;exitX=0.5;exitY=1;exitDx=0;exitDy=0;entryX=0.5;entryY=0;entryDx=0;entryDy=0;" parent="1" source="-NY3NpNkmHzMiphdb3_H-174" target="-NY3NpNkmHzMiphdb3_H-167" edge="1">
          <mxGeometry relative="1" as="geometry" />
        </mxCell>
        <mxCell id="-NY3NpNkmHzMiphdb3_H-173" value="NO" style="edgeLabel;html=1;align=center;verticalAlign=middle;resizable=0;points=[];" parent="-NY3NpNkmHzMiphdb3_H-172" vertex="1" connectable="0">
          <mxGeometry x="-0.137" relative="1" as="geometry">
            <mxPoint as="offset" />
          </mxGeometry>
        </mxCell>
        <mxCell id="0TCiS3jpWjliWt0SgUNI-1" style="edgeStyle=orthogonalEdgeStyle;rounded=0;orthogonalLoop=1;jettySize=auto;html=1;exitX=1;exitY=0.5;exitDx=0;exitDy=0;entryX=0.583;entryY=0.989;entryDx=0;entryDy=0;entryPerimeter=0;" parent="1" source="-NY3NpNkmHzMiphdb3_H-174" target="-NY3NpNkmHzMiphdb3_H-164" edge="1">
          <mxGeometry relative="1" as="geometry">
            <mxPoint x="690" y="4200" as="targetPoint" />
          </mxGeometry>
        </mxCell>
        <mxCell id="0TCiS3jpWjliWt0SgUNI-2" value="YES" style="edgeLabel;html=1;align=center;verticalAlign=middle;resizable=0;points=[];" parent="0TCiS3jpWjliWt0SgUNI-1" vertex="1" connectable="0">
          <mxGeometry x="-0.7127" y="-1" relative="1" as="geometry">
            <mxPoint as="offset" />
          </mxGeometry>
        </mxCell>
        <mxCell id="-NY3NpNkmHzMiphdb3_H-174" value="verify refresh&lt;br&gt;token" style="rhombus;whiteSpace=wrap;html=1;" parent="1" vertex="1">
          <mxGeometry x="340.17" y="4227.75" width="106.16" height="80" as="geometry" />
        </mxCell>
        <mxCell id="-NY3NpNkmHzMiphdb3_H-175" style="edgeStyle=orthogonalEdgeStyle;rounded=0;orthogonalLoop=1;jettySize=auto;html=1;exitX=1;exitY=0.25;exitDx=0;exitDy=0;entryX=0;entryY=0.25;entryDx=0;entryDy=0;" parent="1" source="-NY3NpNkmHzMiphdb3_H-176" target="-NY3NpNkmHzMiphdb3_H-162" edge="1">
          <mxGeometry relative="1" as="geometry">
            <mxPoint x="330.17" y="4141.75" as="targetPoint" />
          </mxGeometry>
        </mxCell>
        <mxCell id="-NY3NpNkmHzMiphdb3_H-176" value="" style="image;aspect=fixed;perimeter=ellipsePerimeter;html=1;align=center;shadow=0;dashed=0;spacingTop=3;image=img/lib/active_directory/vista_terminal.svg;" parent="1" vertex="1">
          <mxGeometry x="174.17" y="4127.75" width="32.67" height="50.27" as="geometry" />
        </mxCell>
        <mxCell id="-NY3NpNkmHzMiphdb3_H-177" style="edgeStyle=orthogonalEdgeStyle;rounded=0;orthogonalLoop=1;jettySize=auto;html=1;exitX=1;exitY=0.25;exitDx=0;exitDy=0;entryX=0;entryY=0.25;entryDx=0;entryDy=0;" parent="1" source="-NY3NpNkmHzMiphdb3_H-178" target="-NY3NpNkmHzMiphdb3_H-188" edge="1">
          <mxGeometry relative="1" as="geometry" />
        </mxCell>
        <mxCell id="-NY3NpNkmHzMiphdb3_H-178" value="" style="image;aspect=fixed;perimeter=ellipsePerimeter;html=1;align=center;shadow=0;dashed=0;spacingTop=3;image=img/lib/active_directory/vista_terminal.svg;" parent="1" vertex="1">
          <mxGeometry x="157.01" y="3496.0699999999997" width="32.5" height="50" as="geometry" />
        </mxCell>
        <mxCell id="-NY3NpNkmHzMiphdb3_H-209" style="edgeStyle=orthogonalEdgeStyle;rounded=0;orthogonalLoop=1;jettySize=auto;html=1;exitX=1;exitY=0.5;exitDx=0;exitDy=0;" parent="1" source="-NY3NpNkmHzMiphdb3_H-181" target="-NY3NpNkmHzMiphdb3_H-194" edge="1">
          <mxGeometry relative="1" as="geometry" />
        </mxCell>
        <mxCell id="-NY3NpNkmHzMiphdb3_H-210" value="YES" style="edgeLabel;html=1;align=center;verticalAlign=middle;resizable=0;points=[];" parent="-NY3NpNkmHzMiphdb3_H-209" vertex="1" connectable="0">
          <mxGeometry x="-0.4198" y="-2" relative="1" as="geometry">
            <mxPoint as="offset" />
          </mxGeometry>
        </mxCell>
        <mxCell id="-NY3NpNkmHzMiphdb3_H-181" value="token is&lt;br&gt;&amp;nbsp;verified" style="rhombus;whiteSpace=wrap;html=1;" parent="1" vertex="1">
          <mxGeometry x="342.51" y="3582.5" width="100.99" height="80" as="geometry" />
        </mxCell>
        <mxCell id="-NY3NpNkmHzMiphdb3_H-182" value="/user/verify-new-email/{token}" style="text;html=1;align=center;verticalAlign=middle;resizable=0;points=[];autosize=1;strokeColor=none;fillColor=none;" parent="1" vertex="1">
          <mxGeometry x="53.01" y="3466.0699999999997" width="180" height="30" as="geometry" />
        </mxCell>
        <mxCell id="-NY3NpNkmHzMiphdb3_H-183" value="&lt;div style=&quot;font-size: 13px;&quot;&gt;&lt;font style=&quot;font-size: 13px;&quot;&gt;request header{&lt;/font&gt;&lt;/div&gt;&lt;div style=&quot;font-size: 13px;&quot;&gt;&lt;font style=&quot;font-size: 13px;&quot;&gt;token in params&lt;/font&gt;&lt;/div&gt;&lt;div style=&quot;font-size: 13px;&quot;&gt;&lt;font style=&quot;font-size: 13px;&quot;&gt;}&lt;/font&gt;&lt;/div&gt;" style="text;html=1;align=center;verticalAlign=middle;resizable=0;points=[];autosize=1;strokeColor=none;fillColor=none;" parent="1" vertex="1">
          <mxGeometry x="245.51" y="3450" width="120" height="60" as="geometry" />
        </mxCell>
        <mxCell id="-NY3NpNkmHzMiphdb3_H-185" value="update email &lt;br&gt;in database" style="text;html=1;align=center;verticalAlign=middle;resizable=0;points=[];autosize=1;strokeColor=none;fillColor=none;" parent="1" vertex="1">
          <mxGeometry x="597" y="3564.5" width="90" height="40" as="geometry" />
        </mxCell>
        <mxCell id="-NY3NpNkmHzMiphdb3_H-186" value="GET" style="text;html=1;align=center;verticalAlign=middle;resizable=0;points=[];autosize=1;strokeColor=none;fillColor=none;" parent="1" vertex="1">
          <mxGeometry x="107.00999999999999" y="3450" width="50" height="30" as="geometry" />
        </mxCell>
        <mxCell id="-NY3NpNkmHzMiphdb3_H-187" style="edgeStyle=orthogonalEdgeStyle;rounded=0;orthogonalLoop=1;jettySize=auto;html=1;exitX=0;exitY=0.75;exitDx=0;exitDy=0;entryX=1;entryY=0.75;entryDx=0;entryDy=0;" parent="1" source="-NY3NpNkmHzMiphdb3_H-188" target="-NY3NpNkmHzMiphdb3_H-178" edge="1">
          <mxGeometry relative="1" as="geometry" />
        </mxCell>
        <mxCell id="-NY3NpNkmHzMiphdb3_H-188" value="" style="image;aspect=fixed;perimeter=ellipsePerimeter;html=1;align=center;shadow=0;dashed=0;spacingTop=3;image=img/lib/active_directory/generic_server.svg;" parent="1" vertex="1">
          <mxGeometry x="379.01" y="3496.0699999999997" width="28.000000000000004" height="50" as="geometry" />
        </mxCell>
        <mxCell id="-NY3NpNkmHzMiphdb3_H-189" value="SUCCESS&lt;br&gt;{msg:&quot;email has been updated&quot;}&lt;br&gt;FAILURE&lt;br&gt;{msg:&quot;failure message&quot;}" style="text;html=1;align=center;verticalAlign=middle;resizable=0;points=[];autosize=1;strokeColor=none;fillColor=none;" parent="1" vertex="1">
          <mxGeometry x="184" y="3534.5" width="190" height="70" as="geometry" />
        </mxCell>
        <mxCell id="-NY3NpNkmHzMiphdb3_H-190" style="edgeStyle=orthogonalEdgeStyle;rounded=0;orthogonalLoop=1;jettySize=auto;html=1;exitX=0.5;exitY=1;exitDx=0;exitDy=0;entryX=0.505;entryY=-0.037;entryDx=0;entryDy=0;entryPerimeter=0;" parent="1" source="-NY3NpNkmHzMiphdb3_H-181" edge="1">
          <mxGeometry relative="1" as="geometry">
            <mxPoint x="393.76" y="3713.3899999999994" as="targetPoint" />
            <Array as="points">
              <mxPoint x="393" y="3687.5" />
              <mxPoint x="394" y="3687.5" />
            </Array>
          </mxGeometry>
        </mxCell>
        <mxCell id="-NY3NpNkmHzMiphdb3_H-191" value="NO" style="edgeLabel;html=1;align=center;verticalAlign=middle;resizable=0;points=[];" parent="-NY3NpNkmHzMiphdb3_H-190" vertex="1" connectable="0">
          <mxGeometry x="-0.0617" y="1" relative="1" as="geometry">
            <mxPoint as="offset" />
          </mxGeometry>
        </mxCell>
        <mxCell id="-NY3NpNkmHzMiphdb3_H-192" value="send failure message and not update email" style="whiteSpace=wrap;html=1;" parent="1" vertex="1">
          <mxGeometry x="334.76" y="3714.5" width="116.49" height="60" as="geometry" />
        </mxCell>
        <mxCell id="-NY3NpNkmHzMiphdb3_H-193" style="edgeStyle=orthogonalEdgeStyle;rounded=0;orthogonalLoop=1;jettySize=auto;html=1;entryX=0.499;entryY=-0.02;entryDx=0;entryDy=0;entryPerimeter=0;" parent="1" source="-NY3NpNkmHzMiphdb3_H-188" target="-NY3NpNkmHzMiphdb3_H-181" edge="1">
          <mxGeometry relative="1" as="geometry" />
        </mxCell>
        <mxCell id="-NY3NpNkmHzMiphdb3_H-194" value="" style="image;aspect=fixed;perimeter=ellipsePerimeter;html=1;align=center;shadow=0;dashed=0;spacingTop=3;image=img/lib/active_directory/databases.svg;" parent="1" vertex="1">
          <mxGeometry x="660" y="3497.07" width="50" height="49" as="geometry" />
        </mxCell>
        <mxCell id="-NY3NpNkmHzMiphdb3_H-195" style="edgeStyle=orthogonalEdgeStyle;rounded=0;orthogonalLoop=1;jettySize=auto;html=1;exitX=1;exitY=0.25;exitDx=0;exitDy=0;entryX=0;entryY=0.25;entryDx=0;entryDy=0;" parent="1" source="-NY3NpNkmHzMiphdb3_H-196" target="-NY3NpNkmHzMiphdb3_H-206" edge="1">
          <mxGeometry relative="1" as="geometry" />
        </mxCell>
        <mxCell id="-NY3NpNkmHzMiphdb3_H-196" value="" style="image;aspect=fixed;perimeter=ellipsePerimeter;html=1;align=center;shadow=0;dashed=0;spacingTop=3;image=img/lib/active_directory/vista_terminal.svg;" parent="1" vertex="1">
          <mxGeometry x="154.01" y="2726.07" width="32.5" height="50" as="geometry" />
        </mxCell>
        <mxCell id="-NY3NpNkmHzMiphdb3_H-197" style="edgeStyle=orthogonalEdgeStyle;rounded=0;orthogonalLoop=1;jettySize=auto;html=1;exitX=0.5;exitY=1;exitDx=0;exitDy=0;" parent="1" source="-NY3NpNkmHzMiphdb3_H-200" target="-NY3NpNkmHzMiphdb3_H-207" edge="1">
          <mxGeometry relative="1" as="geometry" />
        </mxCell>
        <mxCell id="-NY3NpNkmHzMiphdb3_H-198" value="NO" style="edgeLabel;html=1;align=center;verticalAlign=middle;resizable=0;points=[];" parent="-NY3NpNkmHzMiphdb3_H-197" vertex="1" connectable="0">
          <mxGeometry x="0.0303" y="-2" relative="1" as="geometry">
            <mxPoint as="offset" />
          </mxGeometry>
        </mxCell>
        <mxCell id="-NY3NpNkmHzMiphdb3_H-199" style="edgeStyle=orthogonalEdgeStyle;rounded=0;orthogonalLoop=1;jettySize=auto;html=1;exitX=1;exitY=0.5;exitDx=0;exitDy=0;entryX=0.5;entryY=1;entryDx=0;entryDy=0;" parent="1" source="-NY3NpNkmHzMiphdb3_H-200" target="-NY3NpNkmHzMiphdb3_H-208" edge="1">
          <mxGeometry relative="1" as="geometry" />
        </mxCell>
        <mxCell id="-NY3NpNkmHzMiphdb3_H-200" value="token is&lt;br&gt;verified &amp;amp;&amp;amp;&amp;nbsp;&lt;br&gt;oldPassword&amp;nbsp;&lt;br&gt;is correct" style="rhombus;whiteSpace=wrap;html=1;" parent="1" vertex="1">
          <mxGeometry x="334" y="2822.5" width="110" height="96.25" as="geometry" />
        </mxCell>
        <mxCell id="-NY3NpNkmHzMiphdb3_H-201" value="&lt;div style=&quot;font-size: 13px;&quot;&gt;&lt;font style=&quot;font-size: 13px;&quot;&gt;request {&lt;/font&gt;&lt;/div&gt;&lt;div style=&quot;font-size: 13px;&quot;&gt;oldPassword,&lt;/div&gt;&lt;div style=&quot;font-size: 13px;&quot;&gt;newPassword&lt;/div&gt;&lt;div style=&quot;font-size: 13px;&quot;&gt;&lt;font style=&quot;font-size: 13px;&quot;&gt;}&lt;/font&gt;&lt;/div&gt;&lt;div style=&quot;font-size: 13px;&quot;&gt;&lt;font style=&quot;font-size: 13px;&quot;&gt;access token in params&lt;/font&gt;&lt;/div&gt;" style="text;html=1;align=center;verticalAlign=middle;resizable=0;points=[];autosize=1;strokeColor=none;fillColor=none;" parent="1" vertex="1">
          <mxGeometry x="205" y="2650" width="160" height="90" as="geometry" />
        </mxCell>
        <mxCell id="-NY3NpNkmHzMiphdb3_H-202" value="update password&lt;br&gt;&amp;nbsp;in database" style="text;html=1;align=center;verticalAlign=middle;resizable=0;points=[];autosize=1;strokeColor=none;fillColor=none;" parent="1" vertex="1">
          <mxGeometry x="566.36" y="2810" width="110" height="40" as="geometry" />
        </mxCell>
        <mxCell id="-NY3NpNkmHzMiphdb3_H-203" value="POST&lt;br&gt;/user/update-password" style="text;html=1;align=center;verticalAlign=middle;resizable=0;points=[];autosize=1;strokeColor=none;fillColor=none;" parent="1" vertex="1">
          <mxGeometry x="73" y="2686.0699999999997" width="150" height="40" as="geometry" />
        </mxCell>
        <mxCell id="-NY3NpNkmHzMiphdb3_H-204" style="edgeStyle=orthogonalEdgeStyle;rounded=0;orthogonalLoop=1;jettySize=auto;html=1;exitX=0;exitY=0.75;exitDx=0;exitDy=0;entryX=1;entryY=0.75;entryDx=0;entryDy=0;" parent="1" source="-NY3NpNkmHzMiphdb3_H-206" target="-NY3NpNkmHzMiphdb3_H-196" edge="1">
          <mxGeometry relative="1" as="geometry" />
        </mxCell>
        <mxCell id="-NY3NpNkmHzMiphdb3_H-205" style="edgeStyle=orthogonalEdgeStyle;rounded=0;orthogonalLoop=1;jettySize=auto;html=1;exitX=0.5;exitY=1;exitDx=0;exitDy=0;entryX=0.5;entryY=0;entryDx=0;entryDy=0;" parent="1" source="-NY3NpNkmHzMiphdb3_H-206" target="-NY3NpNkmHzMiphdb3_H-200" edge="1">
          <mxGeometry relative="1" as="geometry" />
        </mxCell>
        <mxCell id="-NY3NpNkmHzMiphdb3_H-206" value="" style="image;aspect=fixed;perimeter=ellipsePerimeter;html=1;align=center;shadow=0;dashed=0;spacingTop=3;image=img/lib/active_directory/generic_server.svg;" parent="1" vertex="1">
          <mxGeometry x="375" y="2726.0699999999997" width="28.000000000000004" height="50" as="geometry" />
        </mxCell>
        <mxCell id="-NY3NpNkmHzMiphdb3_H-207" value="failure message" style="whiteSpace=wrap;html=1;" parent="1" vertex="1">
          <mxGeometry x="334" y="2960" width="110" height="20" as="geometry" />
        </mxCell>
        <mxCell id="-NY3NpNkmHzMiphdb3_H-208" value="" style="image;aspect=fixed;perimeter=ellipsePerimeter;html=1;align=center;shadow=0;dashed=0;spacingTop=3;image=img/lib/active_directory/databases.svg;" parent="1" vertex="1">
          <mxGeometry x="645" y="2726.5699999999997" width="50" height="49" as="geometry" />
        </mxCell>
        <mxCell id="7kitMhYJpOm5JxztUBL6-20" style="edgeStyle=orthogonalEdgeStyle;rounded=0;orthogonalLoop=1;jettySize=auto;html=1;exitX=0;exitY=0.75;exitDx=0;exitDy=0;entryX=1;entryY=0.75;entryDx=0;entryDy=0;" parent="1" source="7kitMhYJpOm5JxztUBL6-22" target="7kitMhYJpOm5JxztUBL6-36" edge="1">
          <mxGeometry relative="1" as="geometry" />
        </mxCell>
        <mxCell id="7kitMhYJpOm5JxztUBL6-21" style="edgeStyle=orthogonalEdgeStyle;rounded=0;orthogonalLoop=1;jettySize=auto;html=1;exitX=0.5;exitY=1;exitDx=0;exitDy=0;entryX=0.5;entryY=0;entryDx=0;entryDy=0;" parent="1" source="7kitMhYJpOm5JxztUBL6-22" target="7kitMhYJpOm5JxztUBL6-34" edge="1">
          <mxGeometry relative="1" as="geometry" />
        </mxCell>
        <mxCell id="7kitMhYJpOm5JxztUBL6-22" value="" style="image;aspect=fixed;perimeter=ellipsePerimeter;html=1;align=center;shadow=0;dashed=0;spacingTop=3;image=img/lib/active_directory/generic_server.svg;" parent="1" vertex="1">
          <mxGeometry x="352.34" y="1710" width="28" height="50" as="geometry" />
        </mxCell>
        <mxCell id="7kitMhYJpOm5JxztUBL6-23" value="&lt;div class=&quot;opblock-summary-path-description-wrapper&quot;&gt;&lt;/div&gt;&lt;span style=&quot;&quot; class=&quot;opblock-summary-method&quot;&gt;POST&lt;/span&gt;&lt;br&gt;/user/upload" style="text;html=1;align=center;verticalAlign=middle;resizable=0;points=[];autosize=1;strokeColor=none;fillColor=none;" parent="1" vertex="1">
          <mxGeometry x="105" y="1670" width="90" height="40" as="geometry" />
        </mxCell>
        <mxCell id="7kitMhYJpOm5JxztUBL6-24" value="" style="image;aspect=fixed;perimeter=ellipsePerimeter;html=1;align=center;shadow=0;dashed=0;spacingTop=3;image=img/lib/active_directory/databases.svg;" parent="1" vertex="1">
          <mxGeometry x="645" y="1711.27" width="50" height="49" as="geometry" />
        </mxCell>
        <mxCell id="7kitMhYJpOm5JxztUBL6-27" value="failure message" style="whiteSpace=wrap;html=1;" parent="1" vertex="1">
          <mxGeometry x="317.41" y="1970" width="95.84" height="20" as="geometry" />
        </mxCell>
        <mxCell id="7kitMhYJpOm5JxztUBL6-28" value="req{&lt;br&gt;img .jpg | .png with &lt;br&gt;key avatar in form-data&lt;br&gt;and 150KB filesize&lt;br&gt;}&lt;br&gt;accessToken in header" style="text;html=1;align=center;verticalAlign=middle;resizable=0;points=[];autosize=1;strokeColor=none;fillColor=none;" parent="1" vertex="1">
          <mxGeometry x="189.51" y="1620" width="150" height="100" as="geometry" />
        </mxCell>
        <mxCell id="7kitMhYJpOm5JxztUBL6-29" value="save avatar in db" style="text;html=1;align=center;verticalAlign=middle;resizable=0;points=[];autosize=1;strokeColor=none;fillColor=none;" parent="1" vertex="1">
          <mxGeometry x="550" y="1830" width="110" height="30" as="geometry" />
        </mxCell>
        <mxCell id="7kitMhYJpOm5JxztUBL6-30" value="SUCCESS&lt;br&gt;{send object includes user avatar}&lt;br&gt;FAILURE&lt;br&gt;{msg:&quot;failure message&quot;}" style="text;html=1;align=center;verticalAlign=middle;resizable=0;points=[];autosize=1;strokeColor=none;fillColor=none;" parent="1" vertex="1">
          <mxGeometry x="164" y="1740" width="200" height="70" as="geometry" />
        </mxCell>
        <mxCell id="7kitMhYJpOm5JxztUBL6-31" value="" style="edgeStyle=orthogonalEdgeStyle;rounded=0;orthogonalLoop=1;jettySize=auto;html=1;" parent="1" target="7kitMhYJpOm5JxztUBL6-34" edge="1">
          <mxGeometry relative="1" as="geometry">
            <mxPoint x="673.0699999999999" y="1784.04" as="targetPoint" />
            <mxPoint x="372.49736842105256" y="1884.0926315789475" as="sourcePoint" />
            <Array as="points" />
          </mxGeometry>
        </mxCell>
        <mxCell id="7kitMhYJpOm5JxztUBL6-32" style="edgeStyle=orthogonalEdgeStyle;rounded=0;orthogonalLoop=1;jettySize=auto;html=1;exitX=0.5;exitY=1;exitDx=0;exitDy=0;entryX=0.5;entryY=0;entryDx=0;entryDy=0;" parent="1" source="7kitMhYJpOm5JxztUBL6-34" target="7kitMhYJpOm5JxztUBL6-27" edge="1">
          <mxGeometry relative="1" as="geometry" />
        </mxCell>
        <mxCell id="7kitMhYJpOm5JxztUBL6-33" value="NO" style="edgeLabel;html=1;align=center;verticalAlign=middle;resizable=0;points=[];" parent="7kitMhYJpOm5JxztUBL6-32" vertex="1" connectable="0">
          <mxGeometry x="-0.137" relative="1" as="geometry">
            <mxPoint as="offset" />
          </mxGeometry>
        </mxCell>
        <mxCell id="7kitMhYJpOm5JxztUBL6-38" style="edgeStyle=orthogonalEdgeStyle;rounded=0;orthogonalLoop=1;jettySize=auto;html=1;exitX=1;exitY=0.5;exitDx=0;exitDy=0;entryX=0.5;entryY=1;entryDx=0;entryDy=0;" parent="1" source="7kitMhYJpOm5JxztUBL6-34" target="7kitMhYJpOm5JxztUBL6-24" edge="1">
          <mxGeometry relative="1" as="geometry" />
        </mxCell>
        <mxCell id="7kitMhYJpOm5JxztUBL6-34" value="verify access&lt;br&gt;token &amp;amp; extension is correct &amp;amp; filesize is correct" style="rhombus;whiteSpace=wrap;html=1;" parent="1" vertex="1">
          <mxGeometry x="287.16" y="1810" width="156.34" height="110" as="geometry" />
        </mxCell>
        <mxCell id="7kitMhYJpOm5JxztUBL6-35" style="edgeStyle=orthogonalEdgeStyle;rounded=0;orthogonalLoop=1;jettySize=auto;html=1;exitX=1;exitY=0.25;exitDx=0;exitDy=0;entryX=0;entryY=0.25;entryDx=0;entryDy=0;" parent="1" source="7kitMhYJpOm5JxztUBL6-36" target="7kitMhYJpOm5JxztUBL6-22" edge="1">
          <mxGeometry relative="1" as="geometry">
            <mxPoint x="302.5" y="1724" as="targetPoint" />
          </mxGeometry>
        </mxCell>
        <mxCell id="7kitMhYJpOm5JxztUBL6-36" value="" style="image;aspect=fixed;perimeter=ellipsePerimeter;html=1;align=center;shadow=0;dashed=0;spacingTop=3;image=img/lib/active_directory/vista_terminal.svg;" parent="1" vertex="1">
          <mxGeometry x="146.5" y="1710" width="32.67" height="50.27" as="geometry" />
        </mxCell>
        <mxCell id="7kitMhYJpOm5JxztUBL6-55" style="edgeStyle=orthogonalEdgeStyle;rounded=0;orthogonalLoop=1;jettySize=auto;html=1;exitX=1;exitY=0.25;exitDx=0;exitDy=0;" parent="1" source="7kitMhYJpOm5JxztUBL6-40" edge="1">
          <mxGeometry relative="1" as="geometry">
            <mxPoint x="410.17" y="3885.25" as="targetPoint" />
          </mxGeometry>
        </mxCell>
        <mxCell id="7kitMhYJpOm5JxztUBL6-40" value="" style="image;aspect=fixed;perimeter=ellipsePerimeter;html=1;align=center;shadow=0;dashed=0;spacingTop=3;image=img/lib/active_directory/vista_terminal.svg;" parent="1" vertex="1">
          <mxGeometry x="174.17" y="3870.71" width="33.5" height="51.54" as="geometry" />
        </mxCell>
        <mxCell id="7kitMhYJpOm5JxztUBL6-41" style="edgeStyle=orthogonalEdgeStyle;rounded=0;orthogonalLoop=1;jettySize=auto;html=1;exitX=0;exitY=0.75;exitDx=0;exitDy=0;entryX=1;entryY=0.75;entryDx=0;entryDy=0;" parent="1" source="7kitMhYJpOm5JxztUBL6-43" target="7kitMhYJpOm5JxztUBL6-40" edge="1">
          <mxGeometry relative="1" as="geometry" />
        </mxCell>
        <mxCell id="7kitMhYJpOm5JxztUBL6-42" style="edgeStyle=orthogonalEdgeStyle;rounded=0;orthogonalLoop=1;jettySize=auto;html=1;exitX=0.25;exitY=1;exitDx=0;exitDy=0;entryX=0.5;entryY=0;entryDx=0;entryDy=0;" parent="1" source="7kitMhYJpOm5JxztUBL6-43" target="7kitMhYJpOm5JxztUBL6-49" edge="1">
          <mxGeometry relative="1" as="geometry" />
        </mxCell>
        <mxCell id="7kitMhYJpOm5JxztUBL6-43" value="" style="image;aspect=fixed;perimeter=ellipsePerimeter;html=1;align=center;shadow=0;dashed=0;spacingTop=3;image=img/lib/active_directory/generic_server.svg;" parent="1" vertex="1">
          <mxGeometry x="412.17" y="3872.25" width="28.000000000000004" height="50" as="geometry" />
        </mxCell>
        <mxCell id="7kitMhYJpOm5JxztUBL6-44" value="req{&lt;br&gt;name:&quot;new name&quot;&lt;br&gt;}&lt;br&gt;access token in params" style="text;html=1;align=center;verticalAlign=middle;resizable=0;points=[];autosize=1;strokeColor=none;fillColor=none;" parent="1" vertex="1">
          <mxGeometry x="235.17" y="3812.25" width="150" height="70" as="geometry" />
        </mxCell>
        <mxCell id="7kitMhYJpOm5JxztUBL6-45" style="edgeStyle=orthogonalEdgeStyle;rounded=0;orthogonalLoop=1;jettySize=auto;html=1;exitX=0;exitY=0.5;exitDx=0;exitDy=0;" parent="1" source="7kitMhYJpOm5JxztUBL6-49" edge="1">
          <mxGeometry relative="1" as="geometry">
            <mxPoint x="310.17000000000013" y="4012.185483870968" as="targetPoint" />
          </mxGeometry>
        </mxCell>
        <mxCell id="7kitMhYJpOm5JxztUBL6-46" value="NO" style="edgeLabel;html=1;align=center;verticalAlign=middle;resizable=0;points=[];" parent="7kitMhYJpOm5JxztUBL6-45" vertex="1" connectable="0">
          <mxGeometry x="-0.4286" y="3" relative="1" as="geometry">
            <mxPoint as="offset" />
          </mxGeometry>
        </mxCell>
        <mxCell id="7kitMhYJpOm5JxztUBL6-47" style="edgeStyle=orthogonalEdgeStyle;rounded=0;orthogonalLoop=1;jettySize=auto;html=1;exitX=1;exitY=0.5;exitDx=0;exitDy=0;entryX=0.5;entryY=1;entryDx=0;entryDy=0;" parent="1" source="7kitMhYJpOm5JxztUBL6-49" target="7kitMhYJpOm5JxztUBL6-50" edge="1">
          <mxGeometry relative="1" as="geometry" />
        </mxCell>
        <mxCell id="7kitMhYJpOm5JxztUBL6-48" value="YES" style="edgeLabel;html=1;align=center;verticalAlign=middle;resizable=0;points=[];" parent="7kitMhYJpOm5JxztUBL6-47" vertex="1" connectable="0">
          <mxGeometry x="-0.573" y="2" relative="1" as="geometry">
            <mxPoint as="offset" />
          </mxGeometry>
        </mxCell>
        <mxCell id="7kitMhYJpOm5JxztUBL6-49" value="token&lt;br&gt;is verified" style="rhombus;whiteSpace=wrap;html=1;" parent="1" vertex="1">
          <mxGeometry x="362.17" y="3982.25" width="114" height="60" as="geometry" />
        </mxCell>
        <mxCell id="7kitMhYJpOm5JxztUBL6-50" value="" style="image;aspect=fixed;perimeter=ellipsePerimeter;html=1;align=center;shadow=0;dashed=0;spacingTop=3;image=img/lib/active_directory/databases.svg;" parent="1" vertex="1">
          <mxGeometry x="660" y="3860" width="50" height="49" as="geometry" />
        </mxCell>
        <mxCell id="7kitMhYJpOm5JxztUBL6-51" value="update username &lt;br&gt;in db" style="text;html=1;align=center;verticalAlign=middle;resizable=0;points=[];autosize=1;strokeColor=none;fillColor=none;" parent="1" vertex="1">
          <mxGeometry x="597.17" y="3932.25" width="120" height="40" as="geometry" />
        </mxCell>
        <mxCell id="7kitMhYJpOm5JxztUBL6-52" value="failure message" style="whiteSpace=wrap;html=1;" parent="1" vertex="1">
          <mxGeometry x="190.17" y="4002.25" width="120" height="20" as="geometry" />
        </mxCell>
        <mxCell id="7kitMhYJpOm5JxztUBL6-53" value="SUCCESS&lt;br&gt;{msg:Obj includes new name}&lt;br&gt;FAILURE&lt;br&gt;{msg:failure msg}" style="text;html=1;align=center;verticalAlign=middle;resizable=0;points=[];autosize=1;strokeColor=none;fillColor=none;" parent="1" vertex="1">
          <mxGeometry x="213.98999999999998" y="3902.25" width="180" height="70" as="geometry" />
        </mxCell>
        <mxCell id="7kitMhYJpOm5JxztUBL6-54" value="PUT&lt;br&gt;/user/update-username" style="text;html=1;align=center;verticalAlign=middle;resizable=0;points=[];autosize=1;strokeColor=none;fillColor=none;" parent="1" vertex="1">
          <mxGeometry x="70" y="3820" width="150" height="40" as="geometry" />
        </mxCell>
        <mxCell id="7kitMhYJpOm5JxztUBL6-56" style="edgeStyle=orthogonalEdgeStyle;rounded=0;orthogonalLoop=1;jettySize=auto;html=1;exitX=0;exitY=0.75;exitDx=0;exitDy=0;entryX=1;entryY=0.75;entryDx=0;entryDy=0;" parent="1" source="7kitMhYJpOm5JxztUBL6-58" target="7kitMhYJpOm5JxztUBL6-71" edge="1">
          <mxGeometry relative="1" as="geometry" />
        </mxCell>
        <mxCell id="7kitMhYJpOm5JxztUBL6-57" style="edgeStyle=orthogonalEdgeStyle;rounded=0;orthogonalLoop=1;jettySize=auto;html=1;exitX=0.5;exitY=1;exitDx=0;exitDy=0;entryX=0.5;entryY=0;entryDx=0;entryDy=0;" parent="1" source="7kitMhYJpOm5JxztUBL6-58" target="7kitMhYJpOm5JxztUBL6-69" edge="1">
          <mxGeometry relative="1" as="geometry" />
        </mxCell>
        <mxCell id="7kitMhYJpOm5JxztUBL6-58" value="" style="image;aspect=fixed;perimeter=ellipsePerimeter;html=1;align=center;shadow=0;dashed=0;spacingTop=3;image=img/lib/active_directory/generic_server.svg;" parent="1" vertex="1">
          <mxGeometry x="349.84" y="2080" width="28" height="50" as="geometry" />
        </mxCell>
        <mxCell id="7kitMhYJpOm5JxztUBL6-59" value="&lt;div class=&quot;opblock-summary-path-description-wrapper&quot;&gt;&lt;/div&gt;GET&lt;br&gt;/user/me" style="text;html=1;align=center;verticalAlign=middle;resizable=0;points=[];autosize=1;strokeColor=none;fillColor=none;" parent="1" vertex="1">
          <mxGeometry x="112.5" y="2040" width="70" height="40" as="geometry" />
        </mxCell>
        <mxCell id="7kitMhYJpOm5JxztUBL6-60" value="" style="image;aspect=fixed;perimeter=ellipsePerimeter;html=1;align=center;shadow=0;dashed=0;spacingTop=3;image=img/lib/active_directory/databases.svg;" parent="1" vertex="1">
          <mxGeometry x="642.5" y="2081.27" width="50" height="49" as="geometry" />
        </mxCell>
        <mxCell id="7kitMhYJpOm5JxztUBL6-61" value="failure message" style="whiteSpace=wrap;html=1;" parent="1" vertex="1">
          <mxGeometry x="315.92" y="2288" width="95.84" height="20" as="geometry" />
        </mxCell>
        <mxCell id="7kitMhYJpOm5JxztUBL6-62" value="req{&lt;br&gt;accessToken in header&lt;br&gt;}" style="text;html=1;align=center;verticalAlign=middle;resizable=0;points=[];autosize=1;strokeColor=none;fillColor=none;" parent="1" vertex="1">
          <mxGeometry x="192.51" y="2030" width="150" height="60" as="geometry" />
        </mxCell>
        <mxCell id="7kitMhYJpOm5JxztUBL6-63" value="get user from database" style="text;html=1;align=center;verticalAlign=middle;resizable=0;points=[];autosize=1;strokeColor=none;fillColor=none;" parent="1" vertex="1">
          <mxGeometry x="520" y="2180" width="150" height="30" as="geometry" />
        </mxCell>
        <mxCell id="7kitMhYJpOm5JxztUBL6-64" value="SUCCESS&lt;br&gt;{msg:&quot;user object&quot;}&lt;br&gt;FAILURE&lt;br&gt;{msg:&quot;failure message&quot;}" style="text;html=1;align=center;verticalAlign=middle;resizable=0;points=[];autosize=1;strokeColor=none;fillColor=none;" parent="1" vertex="1">
          <mxGeometry x="190" y="2110" width="150" height="70" as="geometry" />
        </mxCell>
        <mxCell id="7kitMhYJpOm5JxztUBL6-66" style="edgeStyle=orthogonalEdgeStyle;rounded=0;orthogonalLoop=1;jettySize=auto;html=1;exitX=0.5;exitY=1;exitDx=0;exitDy=0;entryX=0.5;entryY=0;entryDx=0;entryDy=0;" parent="1" source="7kitMhYJpOm5JxztUBL6-69" target="7kitMhYJpOm5JxztUBL6-61" edge="1">
          <mxGeometry relative="1" as="geometry" />
        </mxCell>
        <mxCell id="7kitMhYJpOm5JxztUBL6-67" value="NO" style="edgeLabel;html=1;align=center;verticalAlign=middle;resizable=0;points=[];" parent="7kitMhYJpOm5JxztUBL6-66" vertex="1" connectable="0">
          <mxGeometry x="-0.137" relative="1" as="geometry">
            <mxPoint as="offset" />
          </mxGeometry>
        </mxCell>
        <mxCell id="7kitMhYJpOm5JxztUBL6-68" style="edgeStyle=orthogonalEdgeStyle;rounded=0;orthogonalLoop=1;jettySize=auto;html=1;exitX=1;exitY=0.5;exitDx=0;exitDy=0;entryX=0.5;entryY=1;entryDx=0;entryDy=0;" parent="1" source="7kitMhYJpOm5JxztUBL6-69" target="7kitMhYJpOm5JxztUBL6-60" edge="1">
          <mxGeometry relative="1" as="geometry" />
        </mxCell>
        <mxCell id="7kitMhYJpOm5JxztUBL6-69" value="verify access&lt;br&gt;token" style="rhombus;whiteSpace=wrap;html=1;" parent="1" vertex="1">
          <mxGeometry x="314.16" y="2180" width="101" height="60" as="geometry" />
        </mxCell>
        <mxCell id="7kitMhYJpOm5JxztUBL6-70" style="edgeStyle=orthogonalEdgeStyle;rounded=0;orthogonalLoop=1;jettySize=auto;html=1;exitX=1;exitY=0.25;exitDx=0;exitDy=0;entryX=0;entryY=0.25;entryDx=0;entryDy=0;" parent="1" source="7kitMhYJpOm5JxztUBL6-71" target="7kitMhYJpOm5JxztUBL6-58" edge="1">
          <mxGeometry relative="1" as="geometry">
            <mxPoint x="300" y="2094" as="targetPoint" />
          </mxGeometry>
        </mxCell>
        <mxCell id="7kitMhYJpOm5JxztUBL6-71" value="" style="image;aspect=fixed;perimeter=ellipsePerimeter;html=1;align=center;shadow=0;dashed=0;spacingTop=3;image=img/lib/active_directory/vista_terminal.svg;" parent="1" vertex="1">
          <mxGeometry x="144" y="2080" width="32.67" height="50.27" as="geometry" />
        </mxCell>
        <mxCell id="7kitMhYJpOm5JxztUBL6-72" style="edgeStyle=orthogonalEdgeStyle;rounded=0;orthogonalLoop=1;jettySize=auto;html=1;exitX=0;exitY=0.75;exitDx=0;exitDy=0;entryX=1;entryY=0.75;entryDx=0;entryDy=0;" parent="1" source="7kitMhYJpOm5JxztUBL6-74" target="7kitMhYJpOm5JxztUBL6-86" edge="1">
          <mxGeometry relative="1" as="geometry" />
        </mxCell>
        <mxCell id="7kitMhYJpOm5JxztUBL6-73" style="edgeStyle=orthogonalEdgeStyle;rounded=0;orthogonalLoop=1;jettySize=auto;html=1;exitX=0.5;exitY=1;exitDx=0;exitDy=0;entryX=0.5;entryY=0;entryDx=0;entryDy=0;" parent="1" source="7kitMhYJpOm5JxztUBL6-74" target="7kitMhYJpOm5JxztUBL6-84" edge="1">
          <mxGeometry relative="1" as="geometry" />
        </mxCell>
        <mxCell id="7kitMhYJpOm5JxztUBL6-74" value="" style="image;aspect=fixed;perimeter=ellipsePerimeter;html=1;align=center;shadow=0;dashed=0;spacingTop=3;image=img/lib/active_directory/generic_server.svg;" parent="1" vertex="1">
          <mxGeometry x="347.34" y="2390" width="28" height="50" as="geometry" />
        </mxCell>
        <mxCell id="7kitMhYJpOm5JxztUBL6-75" value="&lt;div class=&quot;opblock-summary-path-description-wrapper&quot;&gt;&lt;/div&gt;GET&lt;br&gt;/user/logout-user" style="text;html=1;align=center;verticalAlign=middle;resizable=0;points=[];autosize=1;strokeColor=none;fillColor=none;" parent="1" vertex="1">
          <mxGeometry x="85" y="2350" width="110" height="40" as="geometry" />
        </mxCell>
        <mxCell id="7kitMhYJpOm5JxztUBL6-76" value="" style="image;aspect=fixed;perimeter=ellipsePerimeter;html=1;align=center;shadow=0;dashed=0;spacingTop=3;image=img/lib/active_directory/databases.svg;" parent="1" vertex="1">
          <mxGeometry x="640" y="2391.27" width="50" height="49" as="geometry" />
        </mxCell>
        <mxCell id="7kitMhYJpOm5JxztUBL6-77" value="failure message" style="whiteSpace=wrap;html=1;" parent="1" vertex="1">
          <mxGeometry x="313.42" y="2598" width="95.84" height="20" as="geometry" />
        </mxCell>
        <mxCell id="7kitMhYJpOm5JxztUBL6-78" value="req{&lt;br&gt;accessToken in header&lt;br&gt;}" style="text;html=1;align=center;verticalAlign=middle;resizable=0;points=[];autosize=1;strokeColor=none;fillColor=none;" parent="1" vertex="1">
          <mxGeometry x="190.01" y="2340" width="150" height="60" as="geometry" />
        </mxCell>
        <mxCell id="7kitMhYJpOm5JxztUBL6-79" value="delete access token in db" style="text;html=1;align=center;verticalAlign=middle;resizable=0;points=[];autosize=1;strokeColor=none;fillColor=none;" parent="1" vertex="1">
          <mxGeometry x="512.5" y="2490" width="160" height="30" as="geometry" />
        </mxCell>
        <mxCell id="7kitMhYJpOm5JxztUBL6-80" value="SUCCESS&lt;br&gt;{msg:&quot;you logged out&quot;}&lt;br&gt;FAILURE&lt;br&gt;{msg:&quot;failure message&quot;}" style="text;html=1;align=center;verticalAlign=middle;resizable=0;points=[];autosize=1;strokeColor=none;fillColor=none;" parent="1" vertex="1">
          <mxGeometry x="187.5" y="2420" width="150" height="70" as="geometry" />
        </mxCell>
        <mxCell id="7kitMhYJpOm5JxztUBL6-81" style="edgeStyle=orthogonalEdgeStyle;rounded=0;orthogonalLoop=1;jettySize=auto;html=1;exitX=0.5;exitY=1;exitDx=0;exitDy=0;entryX=0.5;entryY=0;entryDx=0;entryDy=0;" parent="1" source="7kitMhYJpOm5JxztUBL6-84" target="7kitMhYJpOm5JxztUBL6-77" edge="1">
          <mxGeometry relative="1" as="geometry" />
        </mxCell>
        <mxCell id="7kitMhYJpOm5JxztUBL6-82" value="NO" style="edgeLabel;html=1;align=center;verticalAlign=middle;resizable=0;points=[];" parent="7kitMhYJpOm5JxztUBL6-81" vertex="1" connectable="0">
          <mxGeometry x="-0.137" relative="1" as="geometry">
            <mxPoint as="offset" />
          </mxGeometry>
        </mxCell>
        <mxCell id="7kitMhYJpOm5JxztUBL6-83" style="edgeStyle=orthogonalEdgeStyle;rounded=0;orthogonalLoop=1;jettySize=auto;html=1;exitX=1;exitY=0.5;exitDx=0;exitDy=0;entryX=0.5;entryY=1;entryDx=0;entryDy=0;" parent="1" source="7kitMhYJpOm5JxztUBL6-84" target="7kitMhYJpOm5JxztUBL6-76" edge="1">
          <mxGeometry relative="1" as="geometry" />
        </mxCell>
        <mxCell id="7kitMhYJpOm5JxztUBL6-84" value="verify access&lt;br&gt;token" style="rhombus;whiteSpace=wrap;html=1;" parent="1" vertex="1">
          <mxGeometry x="311.66" y="2490" width="101" height="60" as="geometry" />
        </mxCell>
        <mxCell id="7kitMhYJpOm5JxztUBL6-85" style="edgeStyle=orthogonalEdgeStyle;rounded=0;orthogonalLoop=1;jettySize=auto;html=1;exitX=1;exitY=0.25;exitDx=0;exitDy=0;entryX=0;entryY=0.25;entryDx=0;entryDy=0;" parent="1" source="7kitMhYJpOm5JxztUBL6-86" target="7kitMhYJpOm5JxztUBL6-74" edge="1">
          <mxGeometry relative="1" as="geometry">
            <mxPoint x="297.5" y="2404" as="targetPoint" />
          </mxGeometry>
        </mxCell>
        <mxCell id="7kitMhYJpOm5JxztUBL6-86" value="" style="image;aspect=fixed;perimeter=ellipsePerimeter;html=1;align=center;shadow=0;dashed=0;spacingTop=3;image=img/lib/active_directory/vista_terminal.svg;" parent="1" vertex="1">
          <mxGeometry x="141.5" y="2390" width="32.67" height="50.27" as="geometry" />
        </mxCell>
      </root>
    </mxGraphModel>
  </diagram>
</mxfile>
